# xmcd CD database file
#
# Track frame offsets:
#	150
#	20418
#	36676
#	51674
#	76012
#	91087
#	108934
#	111698
#	129106
#	143028
#	162230
#
# Disc length: 2635 seconds
#
# Revision: 0
# Processed by: cddbd v1.5.1PL0 Copyright (c) Steve Scherf et al.
# Submitted via: CDex 1.51
#
DISCID=8f0a490b
DTITLE=Regulators, The - Bar and Grill
DYEAR=1998
DGENRE=Country
TTITLE0=Breakin' Out
TTITLE1=Money Pride and Greed
TTITLE2=Eatin' Crow
TTITLE3=The Real Deal
TTITLE4=Burn Them Bridges Down
TTITLE5=The Fire
TTITLE6=Maple Leaf Rag
TTITLE7=My Bags Are Packed
TTITLE8=Above The Law
TTITLE9=Lies
TTITLE10=Sweet Sustain
EXTD=YEAR: 1998
EXTT0=
EXTT1=
EXTT2=
EXTT3=
EXTT4=
EXTT5=
EXTT6=
EXTT7=
EXTT8=
EXTT9=
EXTT10=
PLAYORDER=
